<svg id="Layer_2" data-name="Layer 2" xmlns="http://www.w3.org/2000/svg"
     x="0px" y="0px" viewBox="0 0 184.13 92.77"><defs>

    <style>.cls-1,.cls-2{fill:#fdc039;}.cls-2{font-size:19.58px;font-family:Elephant-Regular, Elephant;}</style>
</defs>
    <title>Untitled-1</title>
    <path class="cls-1" d="M248.83,137.4l-2.42,2.35-7.58-6.58-3.25-7.75,1.68-1.17A29.55,29.55,0,0,0,223,119.9v1.43l-7.33,4.33-10,1.09v-2.16a29.79,29.79,0,0,0-12.22,15.86l3.72-2.87,3.5,7.92-3.61,11.42-4.6-2.22a29.72,29.72,0,1,0,56.38-17.3ZM219,177.75l-12.5-4-1.92-7,10.83-1.33,8.83,6.83Zm11.67-28.16L219,153.75l-7-10.17,7-9.67,12,3.42ZM241.42,170l-5.83-1.25,3.83-11.42,7.75-4.17,1.67,6.25S247.36,164.27,241.42,170Z" transform="translate(-129.89 -119.9)"/>
    <text class="cls-2" transform="translate(0 86.78)">FOOTBALLHUB</text></svg>