<svg id="Layer_2" data-name="Layer 2" xmlns="http://www.w3.org/2000/svg"  width="100px" height="180px" x="0px" y="0px" viewBox="0 0 387.05 104"><defs><style>.cls-1{fill:url(#linear-gradient);}.cls-2{font-size:34.09px;fill:#fff;font-family:Elephant-Regular, Elephant;}</style><linearGradient id="linear-gradient" x1="29.95" y1="140" x2="133.23" y2="140" gradientUnits="userSpaceOnUse"><stop offset="0" stop-color="#fcfcfc"/><stop offset="0" stop-color="#fdc039"/><stop offset="0.14" stop-color="#fdc138" stop-opacity="0.99"/><stop offset="0.26" stop-color="#fdc535" stop-opacity="0.95"/><stop offset="0.36" stop-color="#fdcb2f" stop-opacity="0.88"/><stop offset="0.47" stop-color="#fed327" stop-opacity="0.78"/><stop offset="0.56" stop-color="#fedf1d" stop-opacity="0.66"/><stop offset="0.66" stop-color="#feec11" stop-opacity="0.51"/><stop offset="0.75" stop-color="#fffc03" stop-opacity="0.33"/><stop offset="0.76" stop-color="#ff0" stop-opacity="0.3"/><stop offset="0.85" stop-color="#ffff02" stop-opacity="0.31"/><stop offset="0.88" stop-color="#ffff09" stop-opacity="0.32"/><stop offset="0.91" stop-color="#ffff14" stop-opacity="0.36"/><stop offset="0.92" stop-color="#ffff25" stop-opacity="0.4"/><stop offset="0.94" stop-color="#ffff3b" stop-opacity="0.46"/><stop offset="0.95" stop-color="#ffff57" stop-opacity="0.54"/><stop offset="0.97" stop-color="#ff7" stop-opacity="0.63"/><stop offset="0.98" stop-color="#ffff9d" stop-opacity="0.73"/><stop offset="0.99" stop-color="#ffffc8" stop-opacity="0.85"/><stop offset="1" stop-color="#fffff6" stop-opacity="0.97"/><stop offset="1" stop-color="#fff"/></linearGradient></defs><title>웁 픽</title><path class="cls-1" d="M128.65,118.63l-4.23,4.12-13.28-11.52-5.69-13.57,2.94-2a51.73,51.73,0,0,0-25-7.61v2.51L70.58,98.09,53.08,100V96.21A52.14,52.14,0,0,0,31.69,124l6.51-5,6.13,13.86L38,152.8,30,148.91a52,52,0,1,0,98.7-30.28ZM76.42,189.27l-21.88-7L51.18,170l19-2.33,15.46,12ZM96.84,140l-20.42,7.28-12.25-17.8,12.25-16.92,21,6Zm18.82,35.73-10.21-2.19,6.71-20,13.57-7.29,2.93,10.94S126.06,165.67,115.66,175.7Z" transform="translate(-29.95 -88)"/><text class="cls-2" transform="translate(66.44 63.02)">FOOTBALLHUB</text></svg>