<svg xmlns="http://www.w3.org/2000/svg" xml:space="preserve" width="1028.9747" height="1522.1932" viewBox="0 0 1028.9747 1522.1932"><defs><clipPath id="a" clipPathUnits="userSpaceOnUse"><path d="M0 1536h2048V0H0Z"/></clipPath></defs><g clip-path="url(#a)" transform="matrix(1.33333 0 0 -1.33333 -850.846 1785.097)"><path d="M0 0h771.231v-711.1c0-70.567.093-120.864-26.597-188.192-56.005-141.273-194.246-241.853-354.832-241.853h-8.372c-160.634 0-298.905 100.635-354.88 241.971C-.26-831.48 0-780.12 0-710.385Z" style="fill:#ffe800;fill-opacity:1;fill-rule:evenodd;stroke:none" transform="translate(638.385 1338.572)"/><path d="M0 0h771.231v-711.1c0-70.567.093-120.864-26.597-188.192-56.005-141.273-194.246-241.853-354.832-241.853h-8.372c-160.634 0-298.905 100.635-354.88 241.971C-.26-831.48 0-780.12 0-710.385Z" style="fill:none;stroke:#ffec00;stroke-width:.5;stroke-linecap:butt;stroke-linejoin:miter;stroke-miterlimit:22.926;stroke-dasharray:none;stroke-opacity:1" transform="translate(638.385 1338.572)"/><path d="M0 0v-678.744c0-65.405-.264-115.044 24.328-177.138 52.684-133.028 181.812-221.98 325.461-221.98h8.371c143.606 0 272.706 88.901 325.419 221.872 24.461 61.706 24.37 111.525 24.37 176.531V0Z" style="fill:#e20613;fill-opacity:1;fill-rule:evenodd;stroke:none" transform="translate(670.026 1306.931)"/><path d="M0 0c.79 4.741-.591 9.277.174 13.006 7.852 38.31-9.437 30.263-10.459 52.74-16.653-17.416-20.506-44.917-5.26-57.272-.574 7.995-3.087 14.244 1.684 21.225C-11.143 17.143-7.684 5.683 0 0" style="fill:#ffe800;fill-opacity:1;fill-rule:evenodd;stroke:none" transform="translate(826.496 472.708)"/><path d="M0 0c-20.381-31.137-20.178-51.01-1.49-59.717-3.927 13.351-4.386 20.792-1.862 27.064C1.036-45.996 4.924-54.935 10.305-57.11 19.634-34.767 3.329-20.93 0 0" style="fill:#ffe800;fill-opacity:1;fill-rule:evenodd;stroke:none" transform="translate(841.385 537.354)"/><path d="M0 0c-18.931-22.557-20.689-35.939-7.471-49.066-1.824 12.607-.926 16.861 2.177 22.216 2.24-12.661 2.366-21.638 6.959-24.308 6.396 10.423 8.531 20.241 7.07 27.505C6.975-14.904.721-9.07 0 0" style="fill:#ffe800;fill-opacity:1;fill-rule:evenodd;stroke:none" transform="translate(867.174 538.19)"/><path d="M0 0c1.889-2.617 3.546-4.271 5.982-4.69 2.829-.488 6.034.957 7.849 5.321C8.391 4.407 3.372 3.53 0 0m-245.156-42.565c28.683-66.977 71.861-122.022 170.518-121.525-3.329-8.895-9.943-13.267-17.669-17.765 6.221-6.926 28.147 1.851 52.388 12.943.727-5.504-9.891-12.692-17.744-20.065 15.566-.505 36.378 8.192 51.207 18.729-2.465-5.753-9.982-11.859-13.946-17.441 39.741 6.269 69.858 28.714 80.473 70.991 26.567-7.431 54.082-11.206 65.268-4.316-9.951 3.467-22.596 7.715-28.309 16.479 29.307-2.527 49.707 1.578 58.22 8.783-17.858 2.766-38.08 5.63-48.396 14.609 34.83-2.161 57.543 7.538 71.578 25.73-23.431-6.057-44.73-8.82-60.35-2.807 53.481 15.459 72.923 44.436 78.127 79.064-21.955-27.577-47.811-47.139-80.424-44.169 2.956-12.902-.845-23.298-12.206-30.216-1.095-9.518-5.403-15.659-13.099-18.246 5.339 5.788 8.143 11.936 6.55 18.714 24.913 15.126 15.364 32.761 3.582 35.877-22.692 6-27.466-16.631-29.507-28.171-2.376-13.434-7.188-25.794-9.307-31.528-1.652-2.375-5.668-3.018-7.254-1.554-5.664 5.236 6.047 12.807-28.096 30.682C15.778-42.182-3.2-36.611-1.208-28.661c10.403-1.359 15.3 3.072 17.705 6.225 6.702-3.046 19.452-10.303 24.747.016-7.858.414-15.44 2.266-15.926 5.513-.905 6.046 5.123 10.987 11.018 11.908 4.561.712 9.044-.984 10.169-6.441C54.312.447 51.571 11.734 27.435 5.632c6.185 5.486 7.207 15.282-3.905 19.814-.837 8.769-5.57 10.487-15.139 9.054-5.121 1.77-8.96 7.979-16.152-1.993-3.581.35-6.053-.436-8.27-2.805-3.632-.742-7.328-1.339-10.446-3.245 31.779 5.404 47.855-1.371 47.5-19.687C3.027 19.409-13.806-.793-31.78-3.835c-6.76-1.144-12.344 3.103-17.344 9.754-2.768-16.501 13.351-22.373 29.769-19.843-4.311-15.135 7.213-34.21 26.687-43.967 12.277-6.153 19.247-23.681 1.83-26.4C.144-85.695-3.943-74.964-8.401-68.936-19.248-54.27-31.039-42.518-49.869-38.571c-9.892-20.996-21.968-23.285-35.555-12.631 9.084-2.43 18.345-2.562 23.657 1.395 5.361 3.993 7.926 10.632 7.104 17.207-2.149 17.18-18.196 18.958-32.056 17.767-9.578-.823-18.836-2.74-27.331-1.682-25.319 3.153-45.839 13.736-60.596 35.744-.511-35.45 23.842-56.527 67.235-57.332-17.149-7.209-32.701-6.468-51.713-2.483 16.99-15.285 38.242-25.679 68.9-26.982-7.888-4.396-21.129-5.252-32.629-5.104 24.342-14.222 45.418-12.023 67.838-9.875.007-5.763-7.319-9.658-16.442-10.137.176-12.482 31.195-2.133 49.34-7.671 9.641-2.942 14.187-12.178 13.483-23.326-3.725 7.537-3.241 9.928-7.451 15.073-22.746-10.084-48.111-7.867-82.581 18.434-2.558-8.368 9.86-16.449 17.453-20.91-12.583-1.429-24.416 3.892-35.556 15.438 1.105-10.151 11.155-19.042 23.794-24.867-41.664 5.911-74.172 37.246-100.427 87.708 10.438-48.352 43.909-79.414 96.282-97.928-49.951 3.363-88.217 34.219-116.957 87.484 20.114-61.018 60.977-92.584 119.764-98.712-69.779-3.174-117.248 35.198-150.843 99.396" style="fill:#ffe800;fill-opacity:1;fill-rule:evenodd;stroke:none" transform="translate(1061.289 520.534)"/><path d="M0 0c1.948 7.32 5.832 10.349 10.41 11.857 1.029-9.579 1.343-13.006 7.862-12.688 2.414 4.668 5.382 12.935 10.703 12.343C27.878 3.939 32.87-1.146 37.586-.969c1.73 18.189 19.133 20.777 31.094 18.473 7.378-1.421 13.297-4.917 18.61-8.524 16.879-11.456 43.771-16.615 53.498 5.656 1.338 3.062 1.884 6.89 2.424 11.592 1.264 11.013 4.667 7.262 4.868-.325.131-4.969-.98-11.775-2.415-18.069 22.701-5.3 42.888-3.642 61.403 2.606 17.024 5.744 33.013 26.76 50.121 44.108 13.296 13.482 19.749 33.024 29.866 42.148 5.166 4.659 11.778 6.545 19.659 5.769 11.176-1.1 14.725-7.429.915-5.71-17.852 2.222-33.87-15.819-23.94-39.722 2.197-5.292 40.591-17.901 35.528-32.011-4.193-11.683-38.938 7.211-58.83 4.82-13.042-1.568-21.246-9.033-23.211-15.531-2.145-7.099-1.551-23.639 5.773-8.238 1.548 3.255 4.225 6.467 5.538 4.897 2.058-2.462 3.647-11.785 6.365-11.439 2.717.346 3.235 5.119 4.544 7.805 3.5 7.189 6.71 5.301 8.409-1.238.93-3.574 1.724-7.064 4.196-7.27 2.502.647 2.841 7.361 6.231 11.129 3.052 3.392 10.925 3.091 15.153 3.082 15.727-.036 27.599-14.615 45.256-5.591 8.082 4.13 8.072 21.614-4.174 37.411 6.284-1.552 20.52-13.897 11.805-38.755 15.669-7.47 61.038-11.45 75.178-2.417 26.174 16.721 25.076 46.011 18.365 64.216-5.553 15.067-17.382 29.448-31.939 42.961-14.045 13.037-29.121 20.233-45.108 26.367-21.484 8.242-44.625 13.179-69.148 14.524-27.074 1.486-54.69 3.07-54.276 12.28-2.64 15.203 21.5 22.411 34.397 14.979 1.236-6.009 8.897-12.539 14.809-13.3 8.456-1.089 18.849 2.94 24.071-.533-4.1 15.34-17.235 27.383-34.984 22.651 7.091-3.606 13.7-2.517 16.239-8.694-4.695 3.197-10.093 4.915-16.92 3.704-6.248 1.528-11.825 2.744-17.085 2.411-7.094-.451-15.082-2.04-21.027-6.187-17.387-12.12-8.505-31.084 16.102-33.708 8.099-.865 16.202-.891 20.524-1.255 5.413-.457 11.01-.794 16.535-1.35 13.266-1.335 25.151-5.409 35.559-8.276 29.622-8.162 54.778-25.636 71.505-41.319 30.705-28.789 19.918-76.614-25.915-53.322-6.691 3.401-9.831 4.45-17.179 10.613-3.228 6.691 3.917 7.387 8.974 3.167.275 9.093-9.076 13.114-18.365 12.846.2 6.869 4.147 8.4 11.638 5.4-.285 9.131-11.771 11.627-25.775 14.363 1.777 6.611 9.884 5.18 15.011 4.398-3.499 9.572-18.67 13.618-32.742 16.516 5.495 3.208 12.914 2.167 19.835 2.167-17.682 23.393-51.283 27.273-81.403 7.136-4.388-3.646-9.329-9.092-14.425-15.139-8.049-9.553-16.484-20.607-23.713-28.426-13.042-14.106-27.021-21.397-39.781-20.95-.852 9.834 11.31 14.334 17.69 19.44-14.103 2.723-32.321 3.228-49.522-6.241-4.128 5.793 3.187 13.179 18.187 16.93-8.478 5.813-20.903 8.073-42.928 2.635 2.014 7.416 8.204 8.148 17.486 12.114-2.209 9.354-21.722 2.418-22.9 15.447-.489 5.413 4.445 18.583 10.896 18.95-3.924-5.22-4.998-9.195-2.066-13.432 4.922 9.69 10.832 9.773 16.123 10.225 1.127-6.277-1.564-15.881 3.874-19.818 3.12 9.347 10.768 19.938 23.496 19.431 2.678-7.543-.781-9.926-5.711-14.978 11.596-5.592 21.569 12.152 25.141 10.709.607-4.97-5.151-7.727-7.727-11.59 14.474 2.198 24.966 5.877 22.837 19.047-6.452-5.902-14.706 4.66-29.874 2.492-3.613 5.239 3.671 11.414 8.132 10.702 9.573-4.901 19.203-11.201 24.354-3.043 2.154-1.411.431-5.247 1.216-7.519 4.186 1.553 4.715 4.25 6.188 10.184 2.336-.828 2.857-5.242 3.406-7.748 5.104 2.566 11.72 11.101 1.263 25.16-4.97-.539-8.467-2.881-8.274-6.682-5.013.157-10.976.14-15.989.297 5.36 12.862-9.32 12.588-17.768 20.741-4.555 4.394-5.097 11.643-5.588 18.563-9.28-6.814-6.796-30.336 4.337-32.126 2.09-.335 4.571-.361 7.517-.556 2.986-.198 5.503-2.007 6.491-7.104-25.581-.767-19.491 14.771-28.395 26.906-6.717 9.155-24.811 13.982-36.495 8.66-12.347-5.626-20.086-20.466-26.171-38.847 9.847 15.455 18.256 28.654 27.767 33.238 15.421 7.432 28.112-5.894 28.367-18.492-4.275-3.898-11.079-2.348-21.853 7.754-2.06-5.473-2.791-10.785 1.409-15.509-61.758-11.25-62.698-88.832-37.861-120.756 4.031-5.182 18.221-13.234 4.918-14.313-11.88-.964-36.509 10.548-49.119 11.039C15.408 35.107-15.655 22.015 0 0" style="fill:#ffe800;fill-opacity:1;fill-rule:evenodd;stroke:none" transform="translate(801.533 572.122)"/><path d="m0 0 5.995-25.405c-7.183-5.359-21.641-8.821-29.862-1.923-10.913 9.154-5.872 27.591-4.758 40.155.566 6.393 1.008 12.066.711 15.684-1.099 13.405-12.742 5.972-12.198 16.729 6.568-.589 9.254.66 10.713 4.424-2.643 4.628-6.905 2.253-9.427 7.145 3.792 3.409 5.286 3.772 9.826 4.197-.561 4.537-.853 7.038-5.89 8.591 26.963 4.665 22.583-21.898 20.141-42.74C-16.619 10.897-17.856-6.855 0 0" style="fill:#ffe800;fill-opacity:1;fill-rule:evenodd;stroke:none" transform="translate(876.89 643.918)"/><path d="M0 0c-7.789-6.798-15.224-15.256-21.803-27.708l-1.212 10.296-9.235-6.36.302 12.567c-2.221-1.008-4.441-2.019-6.662-3.028C-37.04 3.015-22.126 1.576 0 0" style="fill:#ffe800;fill-opacity:1;fill-rule:evenodd;stroke:none" transform="translate(1037.21 674.981)"/><path d="M0 0c142.924 0 258.788-116.157 258.788-259.441 0-143.285-115.864-259.442-258.788-259.442s-258.788 116.157-258.788 259.442C-258.788-116.157-142.924 0 0 0m1.095 78.42c169.992 0 307.8-137.515 307.8-307.147 0-169.631-137.808-307.147-307.8-307.147-169.994 0-307.802 137.516-307.802 307.147 0 169.632 137.808 307.147 307.802 307.147M172.821-3.094l-11.946-8.465-11.709 8.791 4.36-13.978-11.978-8.42 14.64-.173 4.306-13.993 4.688 13.87 14.64-.229-11.743 8.746zM96.738 39.279 86.54 25.308l-16.418 5.445 10.135-14.017L70.005 2.804l16.464 5.307L96.55-5.944l.039 17.298 16.484 5.245-16.439 5.382zM-167.877-3.094l11.947-8.466 11.707 8.791-4.359-13.977 11.978-8.42-14.639-.172-4.306-13.994-4.69 13.87-14.639-.229 11.743 8.746zm76.082 42.373 10.2-13.972 16.418 5.446-10.136-14.017L-65.06 2.804l-16.464 5.308-10.082-14.056-.039 17.298-16.484 5.244 16.44 5.383zM2.076 61.987 8.28 42.77l20.193.039-16.36-11.838 6.277-19.193-16.314 11.9-16.314-11.9 6.277 19.193-16.359 11.838 20.193-.039Z" style="fill:#ffe800;fill-opacity:1;fill-rule:evenodd;stroke:none" transform="translate(1021.417 815.532)"/><path d="M921.373 1016.015h77.339V985.41h-77.339zm-14.874 13.477h107.089v-57.558H906.499Z" style="fill:#fff;fill-opacity:1;fill-rule:evenodd;stroke:none"/><path d="M952.937 1051.605h14.212V931.883h-14.212zM1045.966 1032.298h82.181V943.89h-82.181zm-13.266 12.662h108.713V931.227H1032.7Z" style="fill:#fff;fill-opacity:1;fill-rule:evenodd;stroke:none"/><path d="M1050.953 964.957h71.3v-11.684h-71.3zM1053.45 1022.603h66.305v-11.684h-66.305z" style="fill:#fff;fill-opacity:1;fill-rule:evenodd;stroke:none"/><path d="M1080.761 1021.37h11.684v-66.305h-11.684z" style="fill:#fff;fill-opacity:1;fill-rule:evenodd;stroke:none"/><path d="M1056.715 995.81h59.777v-11.684h-59.777z" style="fill:#fff;fill-opacity:1;fill-rule:evenodd;stroke:none"/><path d="m0 0 9.959-10.354-7.344-7.063-9.958 10.354Z" style="fill:#fff;fill-opacity:1;fill-rule:evenodd;stroke:none" transform="translate(1106.883 983.715)"/><path d="M0 0h178.865v-36.396H35.182l-.062-34.379h143.878v-35.791H35.054l-.134-73.652H0Z" style="fill:#fff;fill-opacity:1;fill-rule:evenodd;stroke:none" transform="translate(934.414 1255.09)"/><path d="M1187.671 1219.811h107.38v-34.75h-107.38zm-36.233 37.292h179.847v-181.06h-35.969v73.268h-107.909v-73.268h-35.969z" style="fill:#fff;fill-opacity:1;fill-rule:evenodd;stroke:none"/><path d="M0 0h179.358v-35.695H35.681v-109.731h143.677v-35.695H0Z" style="fill:#fff;fill-opacity:1;fill-rule:evenodd;stroke:none" transform="translate(717.634 1256.492)"/></g></svg>