<svg xmlns="http://www.w3.org/2000/svg" width="500" height="900" viewBox="0 0 23.346106 30.853247"><path d="M306.001 442.249a96.475 96.475 0 0 1 6.236-3.967 105.521 105.521 0 0 1 11.196-5.66c2.847-1.234 5.217-2.406 7.193-3.545 1.91-1.102 3.441-2.173 4.674-3.241 1.01-.876 1.803-1.76 2.438-2.673a13.05 13.05 0 0 0 1.483-2.814c1.715-4.458 1.5-11.95 1.475-12.698l-.03-51.806h-69.329l-.03 51.806c-.026.748-.24 8.24 1.475 12.698.373.97.846 1.898 1.483 2.814.635.913 1.428 1.797 2.438 2.673 1.233 1.068 2.764 2.139 4.674 3.24 1.975 1.14 4.346 2.312 7.193 3.547 4.35 1.887 8.098 3.85 11.196 5.66a96.387 96.387 0 0 1 6.235 3.966zm-5.232-78.51a1.394 1.394 0 1 0 0 2.789 1.394 1.394 0 0 0 0-2.789zm2.257.475c.023.046.059 1.236.059 1.236l3.24-1.312s.1-.158.035-.24c-.065-.082-.164-.047-.164-.047zm-2.257.263a.657.657 0 1 0 0 1.313.657.657 0 0 0 0-1.313z" style="fill:#fff;fill-rule:evenodd" transform="matrix(.26458 0 0 .26458 -69.29 -89.348)"/><path d="M326.945 440.945c-11.473 4.977-18.196 10.733-18.322 10.84-.819.797-1.961 1.662-2.858 2.42l-2.576-2.575c-.741-.612-3.614-2.903-8.286-5.663a89.338 89.338 0 0 0-9.848-5.022c-3.242-1.406-5.958-2.758-8.242-4.089-2.349-1.37-4.284-2.737-5.898-4.137-1.719-1.49-3.075-3.011-4.173-4.601-1.095-1.586-1.928-3.238-2.603-4.994-.859-2.232-1.381-4.81-1.695-7.26-.485-3.783-.479-7.289-.454-8.634v-69.436h88.02v69.436c.025 1.345.03 4.85-.454 8.635-.314 2.448-.836 5.027-1.694 7.259-.675 1.756-1.509 3.408-2.604 4.994-1.098 1.59-2.454 3.111-4.172 4.6-1.615 1.4-3.55 2.768-5.9 4.138-2.282 1.331-4.998 2.683-8.241 4.09zM306 451.253s7.533-6.492 20.283-12.023c12.75-5.532 17.312-10.218 19.656-16.311 2.344-6.094 1.954-15.612 1.954-15.612v-67.672h-83.786v67.672s-.39 9.518 1.954 15.612c2.344 6.093 6.906 10.78 19.656 16.31 12.749 5.531 20.281 12.023 20.283 12.024z" style="fill:#fff;fill-rule:evenodd" transform="matrix(.26458 0 0 .26458 -69.29 -89.348)"/><path d="M294.172 350.18h-2.167l.887-2.126.012-.027.856-2.05.03-.075.757-1.812.295-.708.042-.1a.668.668 0 0 1 .627-.361h2.389l-.337.805.152.364.757 1.812.03.074.856 2.05.012.028.887 2.125h-2.167l-.428-1.026H294.6zm26.242-7.26h1.954l2.818 3.897V343.164a.25.25 0 0 1 .243-.243h1.955V349.936a.25.25 0 0 1-.243.243h-1.955l-2.818-3.896V349.936a.25.25 0 0 1-.243.243h-1.955v-7.015a.25.25 0 0 1 .244-.243zm-17.754 0h3.574v.001a2.765 2.765 0 0 1 0 5.53H304.608v1.728h-2.198v-7.008a.25.25 0 0 1 .25-.25zm1.948 1.64v2.251H305.57a1.125 1.125 0 0 0 0-2.25h-.024zm7.47 5.62h-2.166l.887-2.126.011-.027.856-2.05.031-.075.757-1.812.295-.708.042-.1a.667.667 0 0 1 .626-.361h2.39l-.337.805.152.364.756 1.812.031.074.856 2.05.012.028.886 2.125h-2.166l-.428-1.026h-3.063zm1.96-4.695-.174.417-.031.074-.696 1.667h1.802l-.696-1.667-.031-.074zm-24.441 3.73c-.535.572-1.63.964-2.895.964-.882 0-1.68-.19-2.266-.5l.679-1.662c.453.215 1.013.403 1.587.403 1.35 0 1.265-1.03 1.265-1.03V344.594h-1.54l.698-1.672h2.573c.257 0 .467.174.467.386v4.084c0 1.493-.568 1.824-.568 1.824zm6.534-3.73-.174.417-.03.074-.697 1.667h1.802l-.696-1.667-.03-.074zM300.77 363.74a1.394 1.394 0 1 0-.001 2.788 1.394 1.394 0 0 0 0-2.789zm2.256.474c.023.046.059 1.236.059 1.236l3.24-1.312s.1-.158.035-.24c-.065-.082-.164-.047-.164-.047zm-2.257.263a.657.657 0 1 0 0 1.313.657.657 0 0 0 0-1.313z" style="fill:#fff;fill-rule:evenodd" transform="matrix(.26458 0 0 .26458 -69.29 -89.348)"/><path d="M284.763 397.86a7.383 7.383 0 0 1 7.383 7.383 7.383 7.383 0 1 1-7.383-7.383zM295.466 357.971v4.67a177.236 177.236 0 0 0 2.975-1.673c.926-.55 1.618-.17 1.618-.17s1.834 1.236 2.074 1.318c.24.083.628-.21.732-.597.104-.388.504-.176.504-.176s.92.72 1.125.926c.205.204.467.214.467.214h6.211c.2 0 .411.178.411.178s1.055.562 1.56.972c.503.41-.222.703-.222.703l-9.784 4.792c-1.864.84-.692 2.434-.692 2.434l4.626 4.943 6.338-10.038 1.92-3.039c.198-.284.539-.711 1.043-1.148v-4.309zm8.84 56.32H301.222a.834.834 0 0 0-.832.832v14.772h3.914v-5.474h3.604l1.123-3.246h-4.727v-3.289h5.989l1.243-3.594h-2.997zm-8.84-19.692v.355h.18zm0 4.974v9.803c.424.123.812.103.812.103h1.879c.514-.982 1.294-2.454 1.78-3.296.775-1.343.163-2.414.163-2.414s-1.535-3.045-3.35-6.632l-1.229 2.495zm0 12.144v2.575h.18c.457 0 .831.374.831.831v8.778c0 3.21-1.011 3.921-1.011 3.921v5.7l.132.067a100.396 100.396 0 0 1 10.4 6.095c.626-.42 1.27-.845 1.924-1.26a99.615 99.615 0 0 1 8.45-4.818v-5.916h-1.622l-.763 2.205h-3.859l1.58-4.567.02-.06 1.525-4.408.055-.16 1.348-3.895.525-1.522.075-.216c.127-.292.439-.775 1.116-.775v-2.575h-2.78v-.375h-5.52s-.82.058-1.288.727c-.47.668.34-2.59 1.887-2.59h2.58l-5.291-10.21h-2.414l2.11 1.453-2.368 1.195 2.906 1.594-3.656 2.273-1.78 3.695h2.598c1.547 0 2.356 3.258 1.887 2.59-.468-.669-1.289-.727-1.289-.727h-5.52v.375zm20.906-2.295v-7.727l-2.195-2.426h-2.31l2.109 1.453-2.368 1.195 2.907 1.594-2.876 1.788 2.137 4.18h1.973s.28.014.623-.057z" style="fill:#e30016;fill-rule:evenodd" transform="matrix(.26458 0 0 .26458 -69.29 -89.348)"/><path d="M306 444.84c3.55-2.549 9.846-6.62 18.27-10.274 5.855-2.54 9.764-4.829 12.415-7.127 2.32-2.011 3.632-4.048 4.51-6.334 1.964-5.103 1.616-13.575 1.615-13.6l-.02-.198v-53.588h-73.58v53.588l-.02.199c-.001.024-.349 8.496 1.614 13.599.88 2.286 2.192 4.323 4.51 6.333 2.652 2.3 6.561 4.588 12.416 7.128 8.424 3.654 14.72 7.725 18.27 10.274zm-11.828-94.66h-2.167l.887-2.126.012-.027.856-2.05.03-.075.757-1.812.295-.708.042-.1a.668.668 0 0 1 .627-.361h2.389l-.337.805.152.364.757 1.812.03.074.856 2.05.012.028.887 2.125h-2.167l-.428-1.026H294.6zm26.242-7.26h1.954l2.818 3.897V343.164a.25.25 0 0 1 .243-.243h1.955V349.936a.25.25 0 0 1-.243.243h-1.955l-2.818-3.896V349.936a.25.25 0 0 1-.243.243h-1.955v-7.015a.25.25 0 0 1 .244-.243zm-17.754 0h3.574v.001a2.765 2.765 0 0 1 0 5.53H304.608v1.728h-2.198v-7.008a.25.25 0 0 1 .25-.25zm1.948 1.64v2.251H305.57a1.125 1.125 0 0 0 0-2.25h-.024zm7.47 5.62h-2.166l.887-2.126.011-.027.856-2.05.031-.075.757-1.812.295-.708.042-.1a.667.667 0 0 1 .626-.361h2.39l-.337.805.152.364.756 1.812.031.074.856 2.05.012.028.886 2.125h-2.166l-.428-1.026h-3.063zm1.96-4.695-.174.417-.031.074-.696 1.667h1.802l-.696-1.667-.031-.074zm-24.441 3.73c-.535.572-1.63.964-2.895.964-.882 0-1.68-.19-2.266-.5l.679-1.662c.453.215 1.013.403 1.587.403 1.35 0 1.265-1.03 1.265-1.03V344.594h-1.54l.698-1.672h2.573c.257 0 .467.174.467.386v4.084c0 1.493-.568 1.824-.568 1.824zm6.534-3.73-.174.417-.03.074-.697 1.667h1.802l-.696-1.667-.03-.074zM306 451.253s7.533-6.492 20.283-12.023c12.75-5.532 17.312-10.218 19.656-16.311 2.344-6.094 1.954-15.612 1.954-15.612v-67.672h-83.786v67.672s-.39 9.518 1.954 15.612c2.344 6.093 6.906 10.78 19.656 16.31 12.749 5.531 20.281 12.023 20.283 12.024z" style="fill:#0f0d04;fill-rule:evenodd" transform="matrix(.26458 0 0 .26458 -69.29 -89.348)"/><path d="M339.632 360.58h-18.466c-3.49 0-5.261 2.024-5.837 2.848l-1.92 3.04-6.338 10.037-4.626-4.942s-1.172-1.594.692-2.435l9.784-4.792s.725-.293.221-.703-1.559-.972-1.559-.972-.212-.178-.41-.178h-6.212s-.262-.01-.467-.214c-.205-.205-1.125-.926-1.125-.926s-.4-.212-.504.176c-.104.387-.492.68-.732.597-.24-.082-2.074-1.318-2.074-1.318s-.692-.38-1.618.17c-.926.551-5.403 3.012-5.403 3.012s-.903.527-.903 1.957v13.337l-1.313 4.5s-.424 1.04.14 2.016c.278.481 2.5 4.853 4.684 9.164h-10.021l-1.348-1.078h-.48v1.36h-2.338l-1.345 2.714a8.65 8.65 0 0 1 13.218 6.125l1.158-2.35v-.001c.007-.025.237-.825-.072-1.134-.313-.313-3.251-3.54-3.251-3.54h1.95l2.404 2.582 1.23-2.495c1.814 3.587 3.35 6.632 3.35 6.632s.61 1.071-.164 2.414c-.486.842-1.266 2.314-1.78 3.295h-1.88s-1.245.066-1.717-.75v1.313h-2.314s-1.641 0-1.557 2.579c0 0 .855-.903 1.7-.903h6.046v-.375h5.52s.82.058 1.288.726c.469.669-.34-2.59-1.887-2.59h-2.597l1.779-3.694 3.656-2.273-2.906-1.594 2.367-1.195-2.11-1.453h2.415l5.291 10.21h-2.58c-1.547 0-2.356 3.258-1.888 2.59.47-.669 1.29-.727 1.29-.727h5.519v.375h6.047c.843 0 1.699.903 1.699.903.084-2.58-1.557-2.58-1.557-2.58h-2.315v-1.312c-.471.816-1.717.75-1.717.75h-1.973l-2.137-4.179 2.876-1.788-2.907-1.594 2.368-1.195-2.11-1.453h2.311l6.522 7.21h2.699l-9.216-10.187h2.086l9.216 10.187h2.793l-11.845-13.093h2.086l11.845 13.093h3.54l-13.965-15.437h6.936l-4.526-4.527h-6.505l-1.462-1.617h7.153l3.369-4.526h-12.777l1.021-1.617h12.959l3.369-4.527h-13.47l1.022-1.617h13.65l3.37-4.526h-14.162l1.021-1.617h14.344zm-38.863 3.16a1.394 1.394 0 1 0 0 2.788 1.394 1.394 0 0 0 0-2.789zm2.257.474c.023.046.059 1.236.059 1.236l3.24-1.312s.1-.158.035-.24c-.065-.082-.164-.047-.164-.047zm-2.257.263a.657.657 0 1 0 0 1.313.657.657 0 0 0 0-1.313zM295.466 427.822c-.954 1.23-2.904 2.073-5.156 2.073-1.57 0-2.994-.41-4.036-1.076l1.209-3.573c.808.464 1.804.868 2.827.868 2.403 0 2.253-2.213 2.253-2.213V417.886h-2.743l1.243-3.594h4.582c.458 0 .832.374.832.831v8.778c0 3.21-1.011 3.921-1.011 3.921zm18.521 2.073h-3.859l1.58-4.567.02-.06 1.525-4.408.055-.16 1.348-3.895.525-1.522.075-.216c.127-.292.439-.775 1.116-.775h4.255l-.6 1.731.271.782 1.347 3.895.056.16 1.524 4.407.02.06 1.58 4.568h-3.859l-.762-2.205h-5.454zm3.49-10.091-.31.896-.055.16-1.24 3.583h3.21l-1.24-3.583-.055-.16zm-13.172-5.512h-3.082a.834.834 0 0 0-.832.831v14.772h3.914v-5.474h3.604l1.123-3.246h-4.727v-3.289h5.989l1.244-3.594h-2.998z" style="fill:#0f0d04;fill-rule:evenodd" transform="matrix(.26458 0 0 .26458 -69.29 -89.348)"/><path d="M306.001 442.249a96.475 96.475 0 0 1 6.236-3.967 105.521 105.521 0 0 1 11.196-5.66c2.847-1.234 5.217-2.406 7.193-3.545 1.91-1.102 3.441-2.173 4.674-3.241 1.01-.876 1.803-1.76 2.438-2.673a13.05 13.05 0 0 0 1.483-2.814c1.715-4.458 1.5-11.95 1.475-12.698l-.03-51.806h-69.329l-.03 51.806c-.026.748-.24 8.24 1.475 12.698.373.97.846 1.898 1.483 2.814.635.913 1.428 1.797 2.438 2.673 1.233 1.068 2.764 2.139 4.674 3.24 1.975 1.14 4.346 2.312 7.193 3.547 4.35 1.887 8.098 3.85 11.196 5.66a96.387 96.387 0 0 1 6.235 3.966zm36.81-34.715v.572c0 .005.018.411.023 1.097-.007 2.74-.216 8.205-1.638 11.902-.88 2.286-2.192 4.323-4.51 6.333-2.652 2.3-6.561 4.588-12.416 7.128-8.424 3.654-14.72 7.725-18.27 10.274-3.55-2.549-9.846-6.62-18.27-10.274-5.855-2.54-9.764-4.829-12.415-7.127-2.32-2.011-3.632-4.048-4.51-6.334-1.423-3.697-1.632-9.162-1.64-11.902.007-.685.023-1.092.023-1.097v-.572l.002-.028.02-.2V353.72h73.58v53.588l.02.199z" style="fill:#b09438;fill-rule:evenodd" transform="matrix(.26458 0 0 .26458 -69.29 -89.348)"/></svg>