<svg xmlns="http://www.w3.org/2000/svg" width="500" height="900" viewBox="0 0 132.33135 235.55908"><path d="M12.693 5.665h106.945v54.469l5.665 4.484V0H7.028v64.618l5.665-4.484zM119.638 176.992H12.693V122.76l-5.691-4.432v64.33h118.301v-64.33l-5.665 4.432zm0 0" style="fill:#021858;fill-opacity:1;fill-rule:nonzero;stroke:none;stroke-width:6.7136"/><path d="m132.331 70.152-12.693-10.018V5.664H12.693v54.47L0 70.152 6.845 92.81l-6.53 20.246 12.378 9.703v54.233h106.945V122.76l12.352-9.703-6.503-20.246zm0 0" style="fill:#fff;fill-opacity:1;fill-rule:nonzero;stroke:none;stroke-width:6.7136"/><path d="M20.954 13.925h90.423V53.63l3.2 2.518V10.726H17.754v45.422l3.2-2.518zM111.377 168.732H20.954v-39.495l-3.2-2.518v45.212h96.823v-45.212l-3.2 2.518zm0 0" style="fill:#ec0f32;fill-opacity:1;fill-rule:nonzero;stroke:none;stroke-width:6.7136"/><path d="m66.166 84.34-7.527-42.878-31.05 10.7 33.725-17.388 4.852 31.287 4.851-31.287 33.726 17.388-31.05-10.7Zm0 0" style="fill:#021858;fill-opacity:1;fill-rule:nonzero;stroke:none;stroke-width:6.7136"/><path d="m66.166 53.42-2.44-24.546-23.785 13.532 26.225-20.692L92.39 42.406 68.578 28.874Zm0 0" style="fill:#021858;fill-opacity:1;fill-rule:nonzero;stroke:none;stroke-width:6.7136"/><path d="M81.533 52.188 70.152 78.832l7.212-32.204ZM54.968 46.628l7.211 32.204-11.407-26.644ZM117.226 92.889l6.163-20.377-9.835-13.427 15.368 12.142-6.53 21.636 6.163 19.144-13.008 10.228 7.474-11.303zm0 0" style="fill:#021858;fill-opacity:1;fill-rule:nonzero;stroke:none;stroke-width:6.7136"/><path d="m87.854 94.934 23.707 7.973-3.094-10.123 6.53-20.403-1.731-6.95 5.428 8.051-6.136 19.04 5.586 17.833-7.396 12.85 2.308-14.004zm0 0" style="fill:#021858;fill-opacity:1;fill-rule:nonzero;stroke:none;stroke-width:6.7136"/><path d="m91.106 92.286 8.732-.472 10.307-15.998-6.242 17.493 1.076 3.487zM100.1 78.386l-16.94 2.177-4.275 15.21 1.442-19.8 30.893-9.257-9.703 6.006zM3.41 71.227l15.367-12.142-9.834 13.427 6.163 20.377-5.796 18.043 7.474 11.303-13.008-10.228 6.163-19.17Zm0 0" style="fill:#021858;fill-opacity:1;fill-rule:nonzero;stroke:none;stroke-width:6.7136"/><path d="m14.161 110.355 5.613-17.833-6.137-19.04 5.429-8.05-1.731 6.949 6.53 20.403-3.095 10.123 23.708-7.973-25.203 14.267 2.308 14.004zm0 0" style="fill:#021858;fill-opacity:1;fill-rule:nonzero;stroke:none;stroke-width:6.7136"/><path d="m32.493 91.814 8.733.472-13.873 4.51 1.075-3.487-6.242-17.493ZM51.978 75.974l1.442 19.773-4.248-15.184-16.941-2.177-1.443-5.664-9.703-6.006zM76.97 146.571l9.31-7.159-1.6 7.002-18.514 14.555-18.515-14.555-1.6-7.002 9.31 7.16zm0 0" style="fill:#021858;fill-opacity:1;fill-rule:nonzero;stroke:none;stroke-width:6.7136"/><path d="m79.803 107.13-13.034 11.092 22.71 11.12 10.832-7.5 1.468-10.7-11.277-11.094 17.1 11.225-2.151 14.423-13.742 10.517-2.597 5.9-2.543-6.95-20.403-8.339-20.403 8.34-2.544 6.95-2.596-5.901-13.742-10.517-2.15-14.423 17.098-11.225-11.303 11.094 1.468 10.7 10.831 7.5 22.711-11.12-13.034-11.093-3.855-6.399 6.661 3.986h21.715l6.66-3.986zm0 0" style="fill:#021858;fill-opacity:1;fill-rule:nonzero;stroke:none;stroke-width:6.7136"/><path d="M26.329 235.559h7.26v-34.626h-7.26zM52.704 201.187l.173-.254h-7.152L34.18 218.114l-.055.091 11.019 17.281.045.073h8.069L41.486 217.37zM76.765 214.947H64.794v-7.788h13.895l2.142-6.226H57.533v34.626h7.26v-14.722h9.948zM95.326 201.042l-.036-.109h-7.034L76.41 235.35l-.072.209h6.49l2.432-7.252h8.631l.899-5.264h-7.788l2.224-6.599c.88-2.613 1.561-5.064 2.06-7.006.5 1.933 1.171 4.383 2.06 7.006l6.363 19.006.036.109h7.506zm0 0" style="fill:#021858;fill-opacity:1;fill-rule:nonzero;stroke:none;stroke-width:2.3235"/></svg>